<?xml version="1.0" ?><!DOCTYPE svg  PUBLIC '-//W3C//DTD SVG 1.1//EN'  'http://www.w3.org/Graphics/SVG/1.1/DTD/svg11.dtd'><svg enable-background="new 0 0 64 64" height="64px" id="Layer_1" version="1.1" viewBox="0 0 64 64" width="64px" xml:space="preserve" xmlns="http://www.w3.org/2000/svg" xmlns:xlink="http://www.w3.org/1999/xlink"><path d="M62.3,36.596h-0.235c-1.467,0-1.59,1.391-1.597,1.754v2.47c0,0.756-0.713,0.07-0.772,0.009l-5.482-5.42  L33.016,14.101c0,0,0,0-0.002-0.001c-1.075-1.08-2.125-0.018-2.141-0.001L8.591,36.269H8.59l-0.268,0.269  c-0.063,0.07-0.133,0.161-0.204,0.258l-3.768,3.729c-0.808,0.796-0.818-0.003-0.818-0.003v-2.389c0-1.402-1.013-1.531-1.332-1.537  H1.842c0,0-1.592-0.032-1.592,1.584v2.842v3.557v3.831c0,0,0,1.973,1.475,1.973h0.332c0.309-0.009,1.475-0.161,1.475-1.993v-1.687  c0-1.568,0.741-2.273,0.741-2.273l2.671-2.644c0.125-0.116,0.573-0.503,0.573,0.032v6.816c0.007,0.431,0.164,1.748,1.811,1.748  h11.168h0.597c1.957,0,2.466-1.449,2.488-1.517l7.87-22.504h0.001c0,0,0.49-1.085,0.879,0c0,0.001,0,0.002,0.001,0.003l7.983,22.293  c0,0,0.539,1.725,2.78,1.725h0.173h10.998c1.804,0,1.979-1.329,1.99-1.776v-5.977c0,0,0.093-1.276,1.384,0l2.13,2.106  c0,0,0.696,0.703,0.696,1.804v2.309c0.006,0.357,0.123,1.534,1.456,1.534h0.094c1.732,0.097,1.732-2.181,1.732-2.181v-1.039v-2.318  v-6.22C63.75,36.777,62.654,36.604,62.3,36.596z M53.729,45.959c-0.056,0.606-0.418,1.651-2.318,1.651h-6.86  c-1.769,0-2.398-1.285-2.558-1.704l-0.044-0.12c-0.002-0.003-0.006-0.018-0.006-0.018l-7.524-20.538  c-0.827-2.246-2.324-2.177-2.324-2.177h-0.23c-0.468,0.042-1.581,0.391-2.45,2.665c-0.001,0-0.001,0.001-0.001,0.001l-7.628,19.945  c-0.18,0.451-0.914,1.944-2.686,1.944h-6.743c-2.088,0-2.261-1.675-2.271-2.125v-4.935c0.007-0.349,0.123-1.745,1.523-3.161  l19.197-19.417c0,0,1.172-1.234,2.358,0c0,0,0,0,0.002,0.001l19.335,20.115c0.096,0.1,1.229,1.344,1.229,3.205V45.959z" fill="#241F20"/></svg>